<svg width="32" height="32" viewBox="0 0 32 32" fill="none" xmlns="http://www.w3.org/2000/svg">
<g clip-path="url(#clip0_301_13)">
<rect width="32" height="32" fill="white"/>
<rect width="1000" height="1000" fill="white"/>
<path d="M10.3182 24V6.54545H16.2074C17.3438 6.54545 18.2898 6.74432 19.0455 7.14204C19.8068 7.53977 20.3778 8.08239 20.7585 8.76989C21.1392 9.45739 21.3295 10.2386 21.3295 11.1136C21.3295 11.8409 21.2074 12.4631 20.9631 12.9801C20.7188 13.4972 20.3864 13.9148 19.9659 14.233C19.5455 14.5511 19.0767 14.7812 18.5597 14.9233V15.0597C19.1222 15.0994 19.6676 15.2983 20.196 15.6562C20.7244 16.0085 21.1591 16.5028 21.5 17.1392C21.8409 17.7756 22.0114 18.5369 22.0114 19.4233C22.0114 20.304 21.8153 21.0909 21.4233 21.7841C21.0312 22.4716 20.429 23.0142 19.6165 23.4119C18.8097 23.804 17.7812 24 16.5312 24H10.3182ZM11.9119 22.5682H16.5312C17.8778 22.5682 18.8722 22.2699 19.5142 21.6733C20.1619 21.0767 20.4858 20.3267 20.4858 19.4233C20.4858 18.7585 20.3239 18.1562 20 17.6165C19.6818 17.071 19.2301 16.6392 18.6449 16.321C18.0653 16.0028 17.3835 15.8438 16.5994 15.8438H11.9119V22.5682ZM11.9119 14.429H16.3523C17.0398 14.429 17.642 14.2869 18.1591 14.0028C18.6761 13.7187 19.0795 13.3267 19.3693 12.8267C19.6591 12.3267 19.804 11.7557 19.804 11.1136C19.804 10.1875 19.5028 9.43466 18.9006 8.85511C18.2983 8.26989 17.4006 7.97727 16.2074 7.97727H11.9119V14.429Z" fill="#2D2D2D"/>
</g>
<defs>
<clipPath id="clip0_301_13">
<rect width="32" height="32" fill="white"/>
</clipPath>
</defs>
</svg>
